<?xml version="1.0" encoding="UTF-8"?>
<svg version="1.1" xmlns="http://www.w3.org/2000/svg" width="306" height="96">
<path d="M0 0 C100.98 0 201.96 0 306 0 C306 31.68 306 63.36 306 96 C205.02 96 104.04 96 0 96 C0 64.32 0 32.64 0 0 Z " fill="#FDFDFE" transform="translate(0,0)"/>
<path d="M0 0 C2.02954102 0.92041016 2.02954102 0.92041016 4.00390625 2.0390625 C4.74576172 2.45542969 5.48761719 2.87179688 6.25195312 3.30078125 C7.39567383 3.95626953 7.39567383 3.95626953 8.5625 4.625 C9.29791016 5.03878906 10.03332031 5.45257813 10.79101562 5.87890625 C12.34307793 6.7555217 13.88105932 7.65742837 15.40576172 8.58081055 C18.04085005 10.1071161 18.04085005 10.1071161 21.23876953 11.17895508 C24.98378225 12.74265146 27.26834667 13.97430583 30 17 C32.00195543 23.53136338 31.12010734 30.71679294 30.75 37.4375 C30.68976372 39.33251405 30.63501827 41.22771109 30.5859375 43.12304688 C30.45409338 47.75323157 30.24736419 52.37460675 30 57 C28.9385376 57.52456787 27.8770752 58.04913574 26.78344727 58.58959961 C19.11388226 62.39356186 11.49654168 66.19765559 4.16601562 70.63476562 C-0.36200624 73.18710575 -2.99829559 73.07348522 -8 72 C-11.36499023 70.50952148 -11.36499023 70.50952148 -14.80859375 68.62109375 C-15.72597069 68.12380516 -15.72597069 68.12380516 -16.66188049 67.61647034 C-18.59275197 66.56681792 -20.51506864 65.50251685 -22.4375 64.4375 C-23.7540179 63.71841264 -25.07107081 63.00030386 -26.38867188 62.28320312 C-29.59870881 60.5334015 -32.80125457 58.77037683 -36 57 C-39.4902083 22.35419106 -39.4902083 22.35419106 -33.98583984 13.91015625 C-28.95167819 9.43024057 -23.14539013 7.0372548 -16.78564453 4.99072266 C-13.22598159 3.72471808 -10.20982574 1.89482405 -7.05053711 -0.15551758 C-4.29856829 -1.28887395 -2.81607008 -0.86124672 0 0 Z " fill="#5F81FE" transform="translate(37,13)"/>
<path d="M0 0 C-0.33 0.33 -0.66 0.66 -1 1 C-1.16017166 3.80976518 -1.25950534 6.59773596 -1.31640625 9.41015625 C-1.33718735 10.25219101 -1.35796844 11.09422577 -1.37937927 11.96177673 C-1.44496812 14.66193179 -1.50380276 17.36218717 -1.5625 20.0625 C-1.60567637 21.88868241 -1.64929036 23.71485454 -1.69335938 25.54101562 C-1.80065894 30.02723992 -1.90189966 34.5135655 -2 39 C-2.64437012 39.33209473 -3.28874023 39.66418945 -3.95263672 40.00634766 C-6.92852021 41.54251097 -9.90176081 43.08372527 -12.875 44.625 C-14.39480469 45.40810547 -14.39480469 45.40810547 -15.9453125 46.20703125 C-22.44401685 49.58135851 -28.77075934 53.15054687 -35 57 C-38.4902083 22.35419106 -38.4902083 22.35419106 -32.98583984 13.91015625 C-27.95239226 9.43087603 -22.14745007 7.03941475 -15.78955078 4.99072266 C-12.20559262 3.71786232 -9.14938123 1.88381731 -5.95288086 -0.15551758 C-3.54825202 -1.19534895 -2.4175893 -0.87878578 0 0 Z " fill="#90A8FE" transform="translate(36,13)"/>
<path d="M0 0 C2.08468847 0.99921092 4.14617056 2.04733612 6.19140625 3.125 C6.77792465 3.43195801 7.36444305 3.73891602 7.96873474 4.05517578 C9.83546518 5.03276583 11.69915571 6.0159732 13.5625 7 C15.42977525 7.98330815 17.29768503 8.96535492 19.16697693 9.94482422 C20.86091917 10.83280777 22.55270765 11.72489628 24.24438477 12.6171875 C26.98357883 14.07389214 26.98357883 14.07389214 30 15 C30 15.66 30 16.32 30 17 C29.33991943 17.34256836 28.67983887 17.68513672 27.99975586 18.03808594 C24.97823691 19.60725208 21.95786184 21.17860787 18.9375 22.75 C17.89916016 23.28882812 16.86082031 23.82765625 15.79101562 24.3828125 C14.77587891 24.91132812 13.76074219 25.43984375 12.71484375 25.984375 C11.22573486 26.75491211 11.22573486 26.75491211 9.70654297 27.54101562 C7.45104948 28.75685805 5.33690057 30.05918348 3.19140625 31.453125 C-0.84306631 33.40863434 -2.65718343 32.93248728 -7 32 C-10.18139648 30.60131836 -10.18139648 30.60131836 -13.37109375 28.83984375 C-14.52158203 28.21142578 -15.67207031 27.58300781 -16.85742188 26.93554688 C-18.05091264 26.26976672 -19.24427043 25.60374815 -20.4375 24.9375 C-21.65765692 24.26658381 -22.87835584 23.59665233 -24.09960938 22.92773438 C-27.07187441 21.29475082 -30.0382623 19.65197664 -33 18 C-33 17.01 -33 16.02 -33 15 C-28.39641755 12.39386411 -23.78577592 9.80095416 -19.16845703 7.21923828 C-17.16672378 6.09374224 -15.17443261 4.95320769 -13.18359375 3.80859375 C-12.05050781 3.17050781 -10.91742187 2.53242187 -9.75 1.875 C-8.73421875 1.29492188 -7.7184375 0.71484375 -6.671875 0.1171875 C-3.57677176 -1.17696385 -3.07276792 -1.05906243 0 0 Z " fill="#3D66F5" transform="translate(36,53)"/>
<path d="M0 0 C3.17625 -0.061875 6.3525 -0.12375 9.625 -0.1875 C11.1092749 -0.22846802 11.1092749 -0.22846802 12.62353516 -0.27026367 C17.84609085 -0.3193538 21.50611935 0.02982576 26 3 C29.68360984 7.07135825 30.69127545 10.45574848 30.46484375 15.80859375 C29.66245911 19.59126419 27.80566466 21.39473996 25 24 C24.34 24 23.68 24 23 24 C23.5053125 24.84304687 24.010625 25.68609375 24.53125 26.5546875 C25.1809375 27.65039062 25.830625 28.74609375 26.5 29.875 C27.1496875 30.96554688 27.799375 32.05609375 28.46875 33.1796875 C30 36 30 36 30 38 C26.78251347 38.72229289 24.18509695 38.94637066 21 38 C18.83009539 35.30722681 17.33168262 32.60131134 15.80078125 29.50390625 C14.17416979 26.68251689 14.17416979 26.68251689 10.79296875 26.15234375 C9.87128906 26.10207031 8.94960937 26.05179688 8 26 C8 29.96 8 33.92 8 38 C5.36 38 2.72 38 0 38 C0 25.46 0 12.92 0 0 Z " fill="#0E2C52" transform="translate(184,27)"/>
<path d="M0 0 C4.29342473 2.35642672 7.14204382 5.46797605 9 10 C9.45649871 15.66058397 9.12497779 19.08932062 6 24 C3.63254428 26.73737067 2.45870295 27.84709902 -1 29 C-2.66368258 29.11766176 -4.33220803 29.17509083 -6 29.1875 C-7.299375 29.20876953 -7.299375 29.20876953 -8.625 29.23046875 C-11 29 -11 29 -14 27 C-14 30.96 -14 34.92 -14 39 C-16.64 39 -19.28 39 -22 39 C-22 26.46 -22 13.92 -22 1 C-20.02 1 -18.04 1 -16 1 C-16 1.66 -16 2.32 -16 3 C-15.401875 2.505 -14.80375 2.01 -14.1875 1.5 C-9.46059933 -0.72442384 -5.12968355 -0.91732538 0 0 Z " fill="#0C2A51" transform="translate(278,36)"/>
<path d="M0 0 C2.25696901 -0.04637608 4.51393838 -0.09258801 6.77093506 -0.13760376 C8.50257636 -0.17430725 10.23403663 -0.21981592 11.96533203 -0.27026367 C18.7292017 -0.33725407 22.82182233 0.96387739 27.875 5.6875 C30.49377311 9.76970514 30.82751172 12.29822884 30 17 C28.71756064 21.16792792 27.14532148 23.23270314 23.4375 25.375 C18.6045118 27.55299468 14.22808518 27.29044918 9 27 C9 30.63 9 34.26 9 38 C2.84765625 38.09765625 2.84765625 38.09765625 1 38 C0 37 0 37 -0.11352539 33.48999023 C-0.11336626 31.92951578 -0.10767142 30.36903607 -0.09765625 28.80859375 C-0.0962413 27.98875504 -0.09482635 27.16891632 -0.09336853 26.32423401 C-0.08775289 23.69528618 -0.07519779 21.06642227 -0.0625 18.4375 C-0.05748701 16.65950643 -0.05292376 14.88151154 -0.04882812 13.10351562 C-0.03777839 8.73564455 -0.02050331 4.36783652 0 0 Z " fill="#133056" transform="translate(88,27)"/>
<path d="M0 0 C3.50324745 1.53077998 6.08320602 3.54427983 8.15625 6.8359375 C9.81062869 11.07911248 9.52429071 15.5338199 9 20 C6.79046856 24.58273187 4.49345121 26.74039918 0 29 C-5.49675939 29.82118478 -10.43780554 29.72530457 -15.5 27.375 C-19.64406417 23.43813904 -22.20671653 20.31678887 -22.5 14.5 C-22.20671653 8.68321113 -19.64406417 5.56186096 -15.5 1.625 C-10.32676092 -0.776861 -5.60552688 -0.87797409 0 0 Z " fill="#0E2C53" transform="translate(168,36)"/>
<path d="M0 0 C5.44178453 2.47353842 7.62639016 5.70502421 10 11 C10 12.98 10 14.96 10 17 C2.74 17 -4.52 17 -12 17 C-11.34 18.32 -10.68 19.64 -10 21 C-6.57756686 22.00082535 -6.57756686 22.00082535 -3 22 C-2.01 21.34 -1.02 20.68 0 20 C2.26171875 19.8046875 2.26171875 19.8046875 4.6875 19.875 C5.89986328 19.90207031 5.89986328 19.90207031 7.13671875 19.9296875 C7.75160156 19.95289062 8.36648437 19.97609375 9 20 C6.75964609 24.48070783 4.533043 26.8144257 0 29 C-5.29485889 29.78004618 -9.56974005 29.67612289 -14.4375 27.375 C-18.64669313 23.47379661 -21.2058043 20.3348814 -21.5 14.5 C-21.2058043 8.6651186 -18.64669313 5.52620339 -14.4375 1.625 C-9.56248558 -0.67955227 -5.3018646 -0.76643944 0 0 Z " fill="#102D54" transform="translate(240,36)"/>
<path d="M0 0 C2.31 0 4.62 0 7 0 C7.33 0.99 7.66 1.98 8 3 C8.66 2.34 9.32 1.68 10 1 C12.1640625 0.8046875 12.1640625 0.8046875 14.625 0.875 C15.85089844 0.90207031 15.85089844 0.90207031 17.1015625 0.9296875 C18.04128906 0.96449219 18.04128906 0.96449219 19 1 C19 3.31 19 5.62 19 8 C17.88625 8.12375 16.7725 8.2475 15.625 8.375 C11.96896323 8.6465813 11.96896323 8.6465813 10 11 C9.63168919 12.93257855 9.63168919 12.93257855 9.5859375 15.1328125 C9.52792969 16.34130859 9.52792969 16.34130859 9.46875 17.57421875 C9.42234375 18.83685547 9.42234375 18.83685547 9.375 20.125 C9.31699219 21.39923828 9.31699219 21.39923828 9.2578125 22.69921875 C9.16343506 24.79911684 9.08062414 26.89952891 9 29 C6.03 29 3.06 29 0 29 C0 19.43 0 9.86 0 0 Z " fill="#1C375C" transform="translate(123,36)"/>
<path d="M0 0 C1.94140625 0.34765625 1.94140625 0.34765625 4.44140625 1.97265625 C6.40882615 5.08773776 6.53378015 6.71936614 5.94140625 10.34765625 C4.44140625 13.22265625 4.44140625 13.22265625 1.94140625 15.34765625 C-1.0128417 15.9777373 -2.96514597 15.74047502 -6.05859375 15.34765625 C-8.25683969 13.75255716 -8.96051148 12.87845439 -9.45703125 10.19140625 C-9.44929688 9.41796875 -9.4415625 8.64453125 -9.43359375 7.84765625 C-9.44132812 7.07421875 -9.4490625 6.30078125 -9.45703125 5.50390625 C-8.48325181 0.23404106 -4.91669877 -0.20825796 0 0 Z " fill="#F5F6F8" transform="translate(273.05859375,42.65234375)"/>
<path d="M0 0 C2.4375 1 2.4375 1 4 3 C4.56153595 7.42209561 4.79893062 9.72171101 2.4375 13.5 C-0.97532932 15.60020266 -3.06688873 15.63210717 -7 15 C-9.96135546 12.41830549 -10.86756104 10.81118865 -11.5 6.9375 C-11 4 -11 4 -9.4375 1.625 C-6.08716465 -0.6085569 -3.9518567 -0.49398209 0 0 Z " fill="#F7F8F9" transform="translate(165,43)"/>
<path d="M0 0 C8.17817372 -0.36080178 8.17817372 -0.36080178 11.5625 1.125 C13 3 13 3 13.4375 6 C13 9 13 9 11.796875 10.67578125 C9.37084019 12.46366343 7.79122294 12.30355414 4.8125 12.1875 C3.224375 12.125625 1.63625 12.06375 0 12 C0 8.04 0 4.08 0 0 Z " fill="#E8EBEF" transform="translate(192,34)"/>
<path d="M0 0 C8.625 -0.25 8.625 -0.25 12 2 C12.4375 5.4375 12.4375 5.4375 12 9 C10.5 10.9375 10.5 10.9375 8 12 C5.27940731 12.22844671 2.7408346 12.13704173 0 12 C0 8.04 0 4.08 0 0 Z " fill="#F6F7F9" transform="translate(97,35)"/>
<path d="M0 0 C4.63994911 1.07713104 4.63994911 1.07713104 6.5 3.8125 C6.5 4.4725 6.5 5.1325 6.5 5.8125 C1.88 5.8125 -2.74 5.8125 -7.5 5.8125 C-6.23103257 0.73663028 -5.25769897 -0.28166244 0 0 Z " fill="#DEE2E8" transform="translate(235.5,42.1875)"/>
</svg>
